<svg width="61" height="41" viewBox="0 0 61 41" fill="none" xmlns="http://www.w3.org/2000/svg">
<path d="M57.006 0.073213C56.7504 0.0498144 56.4928 0.0498144 56.2372 0.073213H3.73725C3.40077 0.0778195 3.06652 0.122647 2.7435 0.206488L29.8372 24.1793L57.006 0.073213Z" fill="#5B5E80"/>
<path d="M59.7809 2.38892L32.4809 26.545C31.7782 27.1655 30.8278 27.5139 29.8371 27.5139C28.8464 27.5139 27.896 27.1655 27.1934 26.545L0.137109 2.57217C0.0539333 2.84378 0.00983191 3.12367 0.00585938 3.40514V36.7238C0.00585938 37.6075 0.400948 38.455 1.10421 39.0798C1.80747 39.7047 2.7613 40.0557 3.75586 40.0557H56.2559C57.2504 40.0557 58.2043 39.7047 58.9075 39.0798C59.6108 38.455 60.0059 37.6075 60.0059 36.7238V3.40514C59.9909 3.05805 59.915 2.71517 59.7809 2.38892ZM6.32461 36.7238H3.71836V34.3416L17.3496 22.3302L19.9934 24.6791L6.32461 36.7238ZM56.2184 36.7238H53.5934L39.9246 24.6791L42.5684 22.3302L56.1996 34.3416L56.2184 36.7238Z" fill="#5B5E80"/>
</svg>
