<svg width="61" height="61" viewBox="0 0 61 61" fill="none" xmlns="http://www.w3.org/2000/svg">
<path d="M29.9978 20.0514C24.4892 20.0514 19.9937 24.5469 19.9937 30.0557C19.9937 35.5644 24.4892 40.0599 29.9978 40.0599C35.5064 40.0599 40.0019 35.5644 40.0019 30.0557C40.0019 24.5469 35.5064 20.0514 29.9978 20.0514ZM60.0025 30.0557C60.0025 25.9129 60.04 21.8076 59.8074 17.6723C59.5747 12.8691 58.479 8.60617 54.9667 5.0938C51.4469 1.57392 47.1916 0.485685 42.3884 0.253028C38.2457 0.0203709 34.1405 0.0578964 30.0053 0.0578964C25.8626 0.0578964 21.7574 0.0203709 17.6222 0.253028C12.819 0.485685 8.55621 1.58143 5.0439 5.0938C1.52409 8.61368 0.435873 12.8691 0.20322 17.6723C-0.0294331 21.8151 0.00809167 25.9204 0.00809167 30.0557C0.00809167 34.191 -0.0294331 38.3037 0.20322 42.439C0.435873 47.2423 1.53159 51.5052 5.0439 55.0175C8.56371 58.5374 12.819 59.6256 17.6222 59.8583C21.7649 60.091 25.8701 60.0534 30.0053 60.0534C34.148 60.0534 38.2532 60.091 42.3884 59.8583C47.1916 59.6256 51.4544 58.5299 54.9667 55.0175C58.4865 51.4977 59.5747 47.2423 59.8074 42.439C60.0475 38.3037 60.0025 34.1985 60.0025 30.0557ZM29.9978 45.4486C21.4797 45.4486 14.6052 38.5739 14.6052 30.0557C14.6052 21.5374 21.4797 14.6628 29.9978 14.6628C38.5159 14.6628 45.3904 21.5374 45.3904 30.0557C45.3904 38.5739 38.5159 45.4486 29.9978 45.4486ZM46.0208 17.6273C44.032 17.6273 42.426 16.0212 42.426 14.0323C42.426 12.0435 44.032 10.4374 46.0208 10.4374C48.0096 10.4374 49.6157 12.0435 49.6157 14.0323C49.6163 14.5046 49.5237 14.9723 49.3433 15.4088C49.1628 15.8452 48.898 16.2417 48.5641 16.5757C48.2302 16.9096 47.8336 17.1744 47.3972 17.3548C46.9608 17.5353 46.4931 17.6279 46.0208 17.6273Z" fill="#5B5E80"/>
</svg>
