<svg width="61" height="61" viewBox="0 0 61 61" fill="none" xmlns="http://www.w3.org/2000/svg">
<path fill-rule="evenodd" clip-rule="evenodd" d="M0.00586012 5.0684C0.00586012 3.73894 0.533985 2.46393 1.47405 1.52386C2.41412 0.583796 3.68913 0.0556707 5.01859 0.0556707H54.9877C55.6465 0.0545947 56.2991 0.183479 56.9081 0.434943C57.517 0.686408 58.0704 1.05552 58.5365 1.52113C59.0027 1.98675 59.3724 2.53973 59.6245 3.14842C59.8766 3.75711 60.0062 4.40956 60.0059 5.0684V55.0375C60.0066 55.6965 59.8773 56.3491 59.6256 56.9581C59.3738 57.5671 59.0045 58.1204 58.5386 58.5865C58.0728 59.0526 57.5196 59.4223 56.9108 59.6744C56.3019 59.9265 55.6494 60.056 54.9904 60.0557H5.01859C4.36008 60.0557 3.70802 59.9259 3.09967 59.6738C2.49132 59.4217 1.9386 59.0523 1.47309 58.5865C1.00758 58.1207 0.638401 57.5678 0.386648 56.9593C0.134896 56.3508 0.00550184 55.6987 0.00586012 55.0402V5.0684ZM23.7549 22.932H31.8795V27.012C33.0522 24.6666 36.0522 22.5557 40.5604 22.5557C49.2031 22.5557 51.2513 27.2275 51.2513 35.7993V51.6775H42.5049V37.752C42.5049 32.8702 41.3322 30.1157 38.354 30.1157C34.2222 30.1157 32.504 33.0857 32.504 37.752V51.6775H23.7549V22.932ZM8.75495 51.3038H17.504V22.5557H8.75495V51.3011V51.3038ZM18.7559 13.1793C18.7724 13.9284 18.6391 14.6733 18.3638 15.3702C18.0885 16.0671 17.6768 16.7019 17.1529 17.2376C16.6289 17.7732 16.0032 18.1988 15.3126 18.4893C14.6219 18.7799 13.8801 18.9295 13.1309 18.9295C12.3816 18.9295 11.6398 18.7799 10.9492 18.4893C10.2585 18.1988 9.63283 17.7732 9.10886 17.2376C8.5849 16.7019 8.1732 16.0671 7.89793 15.3702C7.62266 14.6733 7.48936 13.9284 7.50586 13.1793C7.53824 11.7089 8.14509 10.3096 9.19646 9.28118C10.2478 8.25271 11.6601 7.67681 13.1309 7.67681C14.6016 7.67681 16.0139 8.25271 17.0653 9.28118C18.1166 10.3096 18.7235 11.7089 18.7559 13.1793Z" fill="#5B5E80"/>
</svg>
