<svg width="639" height="100" viewBox="0 0 639 100" fill="none" xmlns="http://www.w3.org/2000/svg">
<rect width="446" height="100" fill="#F3EBE4"/>
<path d="M10.432 63.176C7.44533 63.176 5.09867 62.664 3.392 61.64C1.68533 60.6587 0.832 59.2507 0.832 57.416C0.832 55.5387 1.38667 53.8107 2.496 52.232C3.60533 50.6107 5.03467 49.224 6.784 48.072C8.576 46.8773 10.432 45.96 12.352 45.32C14.3147 44.6373 16.128 44.296 17.792 44.296C18.6453 44.296 19.072 44.424 19.072 44.68C19.072 45.064 18.624 45.256 17.728 45.256C16.1493 45.256 14.4213 45.64 12.544 46.408C10.7093 47.176 9.06667 48.2427 7.616 49.608C6.464 50.632 5.58933 51.6773 4.992 52.744C4.43733 53.768 4.16 54.728 4.16 55.624C4.16 56.9467 4.77867 58.056 6.016 58.952C7.25333 59.8053 9.10933 60.232 11.584 60.232C13.0347 60.232 14.5067 60.1253 16 59.912C17.4933 59.656 18.8373 59.3787 20.032 59.08C21.2693 58.7813 22.208 58.5467 22.848 58.376C24.4267 57.864 26.0053 57.2453 27.584 56.52C29.2053 55.7947 30.656 54.984 31.936 54.088C33.216 53.1493 34.1547 52.2107 34.752 51.272C35.0933 50.76 35.328 50.2693 35.456 49.8C35.6267 49.3307 35.712 48.8827 35.712 48.456C35.712 47.2613 35.1787 46.2587 34.112 45.448C33.0453 44.5947 31.68 43.8267 30.016 43.144C28.352 42.4613 26.5813 41.8213 24.704 41.224C22.8267 40.584 21.056 39.9227 19.392 39.24C17.728 38.5573 16.3627 37.7893 15.296 36.936C14.2293 36.04 13.696 34.9733 13.696 33.736C13.696 32.328 14.208 31.0693 15.232 29.96C16.2987 28.808 17.6427 27.8053 19.264 26.952C20.928 26.056 22.6987 25.3307 24.576 24.776C26.4533 24.1787 28.2453 23.7307 29.952 23.432C31.6587 23.1333 33.0667 22.984 34.176 22.984C38.8693 22.984 41.216 24.1573 41.216 26.504C41.216 27.4427 40.832 28.5307 40.064 29.768C39.7227 30.408 39.232 31.0267 38.592 31.624C37.952 32.1787 37.4613 32.456 37.12 32.456C36.864 32.456 36.736 32.3067 36.736 32.008C36.736 31.88 36.9707 31.624 37.44 31.24C37.9093 30.8133 38.3787 30.3013 38.848 29.704C39.3173 29.1067 39.552 28.5093 39.552 27.912C39.552 27.016 39.04 26.3333 38.016 25.864C37.0347 25.3947 35.7333 25.16 34.112 25.16C33.344 25.16 32.2347 25.288 30.784 25.544C29.3333 25.7573 27.7547 26.12 26.048 26.632C24.3413 27.144 22.6987 27.8267 21.12 28.68C18.176 30.3013 16.704 31.688 16.704 32.84C16.704 33.6933 17.536 34.504 19.2 35.272C20.4373 35.8267 21.8667 36.4027 23.488 37C25.1093 37.5973 26.752 38.2373 28.416 38.92C30.08 39.6027 31.616 40.3707 33.024 41.224C34.4747 42.0773 35.6267 43.0373 36.48 44.104C37.376 45.128 37.824 46.3013 37.824 47.624C37.824 49.416 36.8427 51.2507 34.88 53.128C33.344 54.5787 31.552 55.9227 29.504 57.16C27.4987 58.3973 25.3653 59.464 23.104 60.36C20.8853 61.256 18.688 61.9387 16.512 62.408C14.336 62.92 12.3093 63.176 10.432 63.176ZM58.2285 61.64C57.5032 61.64 56.8205 61.4693 56.1805 61.128C55.5832 60.7867 55.1352 60.1467 54.8365 59.208C54.7085 58.824 54.6445 58.2907 54.6445 57.608C54.6445 56.6693 54.7725 55.624 55.0285 54.472C55.2845 53.32 55.5618 52.3387 55.8605 51.528C55.6472 51.6133 55.2418 51.9973 54.6445 52.68C54.0898 53.32 53.3858 54.1093 52.5325 55.048C51.7218 55.944 50.8045 56.8613 49.7805 57.8C48.7992 58.696 47.7752 59.4427 46.7085 60.04C45.6418 60.6373 44.5965 60.936 43.5725 60.936C42.8898 60.936 42.1645 60.744 41.3965 60.36C40.6285 59.9333 40.0098 59.4 39.5405 58.76C38.9005 57.9067 38.5805 57.032 38.5805 56.136C38.5805 54.984 38.9645 53.7893 39.7325 52.552C40.5432 51.3147 41.5672 50.12 42.8045 48.968C44.0845 47.7733 45.4285 46.7067 46.8365 45.768C48.2872 44.7867 49.6525 43.976 50.9325 43.336C52.2552 42.6533 53.3218 42.2053 54.1325 41.992C54.9858 41.736 55.9458 41.608 57.0125 41.608C57.6098 41.608 58.2285 41.6933 58.8685 41.864C59.5085 41.992 60.0418 42.2267 60.4685 42.568C60.8098 42.7387 61.0872 42.9733 61.3005 43.272C61.5138 43.5707 61.6205 43.8907 61.6205 44.232C61.6205 44.5733 61.4712 44.68 61.1725 44.552C60.8312 44.04 60.3618 43.72 59.7645 43.592C59.2098 43.4213 58.6338 43.336 58.0365 43.336C56.3298 43.336 54.4525 43.8907 52.4045 45C50.3565 46.1093 48.5218 47.4107 46.9005 48.904C46.3885 49.3307 45.6845 50.0773 44.7885 51.144C43.9352 52.168 43.1458 53.2987 42.4205 54.536C41.6952 55.7733 41.3325 56.904 41.3325 57.928C41.3325 58.4827 41.4818 58.9733 41.7805 59.4C41.9512 59.6987 42.2285 59.848 42.6125 59.848C43.2098 59.848 43.9992 59.528 44.9805 58.888C46.0045 58.248 47.0498 57.48 48.1165 56.584C49.1832 55.6453 50.1432 54.7493 50.9965 53.896C51.8925 53.0427 52.5325 52.424 52.9165 52.04C53.1298 51.8267 53.5352 51.4 54.1325 50.76C54.7725 50.0773 55.4552 49.352 56.1805 48.584C56.9058 47.816 57.5458 47.1547 58.1005 46.6C58.6978 46.0453 59.0818 45.768 59.2525 45.768C59.4658 45.768 59.8072 45.832 60.2765 45.96C60.7885 46.0453 61.2152 46.1947 61.5565 46.408C61.8978 46.6213 61.9618 46.8987 61.7485 47.24C60.6392 48.8613 59.7432 50.568 59.0605 52.36C58.4205 54.1093 58.0365 55.496 57.9085 56.52C57.8658 56.6907 57.8445 56.8613 57.8445 57.032C57.8445 57.16 57.8445 57.3093 57.8445 57.48C57.8445 59.1867 58.4418 60.04 59.6365 60.04C60.2765 60.04 61.1298 59.656 62.1965 58.888C63.2632 58.12 64.3512 57.2027 65.4605 56.136C66.5698 55.0693 67.5725 54.0453 68.4685 53.064C69.4072 52.04 70.0472 51.272 70.3885 50.76C70.5165 50.632 70.6445 50.568 70.7725 50.568C70.9432 50.568 71.0925 50.6533 71.2205 50.824C71.3485 50.952 71.3485 51.1227 71.2205 51.336C70.7512 52.104 70.0685 53.0213 69.1725 54.088C68.2765 55.1547 67.2738 56.2213 66.1645 57.288C65.0552 58.3547 63.9672 59.272 62.9005 60.04C62.3458 60.4667 61.6418 60.8293 60.7885 61.128C59.9352 61.4693 59.0818 61.64 58.2285 61.64ZM68.2845 61.832C67.9432 61.832 67.8365 61.6827 67.9645 61.384C68.1352 61.0853 68.4338 60.3387 68.8605 59.144C69.3298 57.9067 69.8418 56.456 70.3965 54.792C70.9938 53.128 71.5698 51.528 72.1245 49.992C71.6978 50.632 71.2285 51.2507 70.7165 51.848C70.2472 52.4453 69.8418 52.936 69.5005 53.32C69.3725 53.448 69.2872 53.512 69.2445 53.512C69.1165 53.512 69.0525 53.384 69.0525 53.128C69.0525 52.616 69.1805 52.1467 69.4365 51.72C70.3325 50.568 71.0152 49.672 71.4845 49.032C71.9538 48.3493 72.3378 47.752 72.6365 47.24C72.9778 46.6853 73.3192 46.0667 73.6605 45.384C73.7458 44.9147 73.8952 44.3387 74.1085 43.656C74.3645 42.9733 74.9405 42.632 75.8365 42.632C77.1592 42.632 77.8205 42.9093 77.8205 43.464C77.8205 43.6347 77.7778 43.8267 77.6925 44.04C77.6072 44.2107 77.5218 44.4027 77.4365 44.616C76.9245 45.768 76.3698 47.0907 75.7725 48.584C75.1752 50.0773 74.6205 51.4853 74.1085 52.808C73.6392 54.1307 73.2765 55.1547 73.0205 55.88C73.4898 55.2827 74.1938 54.4507 75.1325 53.384C76.0712 52.2747 77.1378 51.08 78.3325 49.8C79.5698 48.4773 80.8285 47.24 82.1085 46.088C83.4312 44.8933 84.6685 43.912 85.8205 43.144C86.9725 42.376 87.9538 41.992 88.7645 41.992C89.7458 41.992 90.2365 42.5467 90.2365 43.656C90.2365 44.5093 89.8952 45.6187 89.2125 46.984C88.9138 47.624 88.5085 48.4987 87.9965 49.608C87.4845 50.6747 87.0792 51.4853 86.7805 52.04C87.5485 51.3573 88.4232 50.6107 89.4045 49.8C90.3858 48.9467 91.4098 48.1573 92.4765 47.432C93.5858 46.7067 94.6098 46.1733 95.5485 45.832C95.7618 45.7467 96.1885 45.6187 96.8285 45.448C97.4685 45.2347 98.0232 45.128 98.4925 45.128C99.1325 45.128 99.4525 45.3413 99.4525 45.768C99.4525 46.0667 99.3032 46.3867 99.0045 46.728C98.2792 47.8373 97.6178 49.032 97.0205 50.312C96.4658 51.5493 96.0178 52.7227 95.6765 53.832C95.3352 54.9413 95.1218 55.8373 95.0365 56.52C94.9938 56.6907 94.9725 56.8613 94.9725 57.032C94.9725 57.16 94.9725 57.3093 94.9725 57.48C94.9725 59.1867 95.5272 60.04 96.6365 60.04C97.3192 60.04 98.1938 59.6773 99.2605 58.952C100.327 58.184 101.415 57.2667 102.525 56.2C103.634 55.0907 104.637 54.0453 105.533 53.064C106.471 52.04 107.111 51.272 107.453 50.76C107.581 50.632 107.709 50.568 107.837 50.568C108.007 50.568 108.135 50.632 108.221 50.76C108.349 50.888 108.37 51.0587 108.285 51.272C107.901 51.9973 107.239 52.9147 106.301 54.024C105.405 55.0907 104.381 56.1787 103.229 57.288C102.119 58.3547 101.031 59.272 99.9645 60.04C99.4098 60.4667 98.7058 60.8293 97.8525 61.128C97.0418 61.4693 96.2098 61.64 95.3565 61.64C94.5885 61.64 93.8845 61.4693 93.2445 61.128C92.6472 60.7867 92.1992 60.1467 91.9005 59.208C91.7725 58.824 91.7085 58.3333 91.7085 57.736C91.7085 56.7973 91.8365 55.7307 92.0925 54.536C92.3485 53.3413 92.6258 52.3387 92.9245 51.528C93.1378 50.9307 93.4152 50.2693 93.7565 49.544C94.1405 48.776 94.4818 48.136 94.7805 47.624C93.4578 48.136 92.1778 48.904 90.9405 49.928C89.7032 50.952 88.5725 51.9973 87.5485 53.064C86.5672 54.088 85.7352 54.9413 85.0525 55.624C84.8818 56.0933 84.5405 56.4773 84.0285 56.776C83.5592 57.0747 83.1112 57.224 82.6845 57.224C82.0445 57.224 81.7245 56.9467 81.7245 56.392C81.7245 56.1787 81.7885 55.9227 81.9165 55.624C82.3432 54.6 82.8125 53.5547 83.3245 52.488C83.8792 51.3787 84.3698 50.376 84.7965 49.48C85.2658 48.584 85.5858 47.9653 85.7565 47.624C86.0978 47.0267 86.2685 46.5573 86.2685 46.216C86.2685 45.8747 86.1192 45.704 85.8205 45.704C85.5218 45.704 85.0312 45.896 84.3485 46.28C83.6658 46.664 82.7698 47.3467 81.6605 48.328C80.7645 49.1387 79.7832 50.2053 78.7165 51.528C77.6498 52.808 76.6258 54.1307 75.6445 55.496C74.6632 56.8613 73.7885 58.0347 73.0205 59.016C72.2952 59.9973 71.7832 60.5733 71.4845 60.744C71.2285 60.872 70.7165 61.0853 69.9485 61.384C69.2232 61.6827 68.6685 61.832 68.2845 61.832ZM124.541 61.64C123.816 61.64 123.133 61.4693 122.493 61.128C121.896 60.7867 121.448 60.1467 121.149 59.208C121.021 58.824 120.957 58.2907 120.957 57.608C120.957 56.6693 121.085 55.624 121.341 54.472C121.597 53.32 121.874 52.3387 122.173 51.528C121.96 51.6133 121.554 51.9973 120.957 52.68C120.402 53.32 119.698 54.1093 118.845 55.048C118.034 55.944 117.117 56.8613 116.093 57.8C115.112 58.696 114.088 59.4427 113.021 60.04C111.954 60.6373 110.909 60.936 109.885 60.936C109.202 60.936 108.477 60.744 107.709 60.36C106.941 59.9333 106.322 59.4 105.853 58.76C105.213 57.9067 104.893 57.032 104.893 56.136C104.893 54.984 105.277 53.7893 106.045 52.552C106.856 51.3147 107.88 50.12 109.117 48.968C110.397 47.7733 111.741 46.7067 113.149 45.768C114.6 44.7867 115.965 43.976 117.245 43.336C118.568 42.6533 119.634 42.2053 120.445 41.992C121.298 41.736 122.258 41.608 123.325 41.608C123.922 41.608 124.541 41.6933 125.181 41.864C125.821 41.992 126.354 42.2267 126.781 42.568C127.122 42.7387 127.4 42.9733 127.613 43.272C127.826 43.5707 127.933 43.8907 127.933 44.232C127.933 44.5733 127.784 44.68 127.485 44.552C127.144 44.04 126.674 43.72 126.077 43.592C125.522 43.4213 124.946 43.336 124.349 43.336C122.642 43.336 120.765 43.8907 118.717 45C116.669 46.1093 114.834 47.4107 113.213 48.904C112.701 49.3307 111.997 50.0773 111.101 51.144C110.248 52.168 109.458 53.2987 108.733 54.536C108.008 55.7733 107.645 56.904 107.645 57.928C107.645 58.4827 107.794 58.9733 108.093 59.4C108.264 59.6987 108.541 59.848 108.925 59.848C109.522 59.848 110.312 59.528 111.293 58.888C112.317 58.248 113.362 57.48 114.429 56.584C115.496 55.6453 116.456 54.7493 117.309 53.896C118.205 53.0427 118.845 52.424 119.229 52.04C119.442 51.8267 119.848 51.4 120.445 50.76C121.085 50.0773 121.768 49.352 122.493 48.584C123.218 47.816 123.858 47.1547 124.413 46.6C125.01 46.0453 125.394 45.768 125.565 45.768C125.778 45.768 126.12 45.832 126.589 45.96C127.101 46.0453 127.528 46.1947 127.869 46.408C128.21 46.6213 128.274 46.8987 128.061 47.24C126.952 48.8613 126.056 50.568 125.373 52.36C124.733 54.1093 124.349 55.496 124.221 56.52C124.178 56.6907 124.157 56.8613 124.157 57.032C124.157 57.16 124.157 57.3093 124.157 57.48C124.157 59.1867 124.754 60.04 125.949 60.04C126.589 60.04 127.442 59.656 128.509 58.888C129.576 58.12 130.664 57.2027 131.773 56.136C132.882 55.0693 133.885 54.0453 134.781 53.064C135.72 52.04 136.36 51.272 136.701 50.76C136.829 50.632 136.957 50.568 137.085 50.568C137.256 50.568 137.405 50.6533 137.533 50.824C137.661 50.952 137.661 51.1227 137.533 51.336C137.064 52.104 136.381 53.0213 135.485 54.088C134.589 55.1547 133.586 56.2213 132.477 57.288C131.368 58.3547 130.28 59.272 129.213 60.04C128.658 60.4667 127.954 60.8293 127.101 61.128C126.248 61.4693 125.394 61.64 124.541 61.64ZM132.997 61.832C132.698 61.832 132.613 61.6827 132.741 61.384C132.869 61.128 133.104 60.552 133.445 59.656C133.786 58.7173 134.17 57.608 134.597 56.328C135.066 55.048 135.536 53.7253 136.005 52.36C136.474 50.9947 136.901 49.7147 137.285 48.52C137.712 47.3253 138.053 46.3867 138.309 45.704C138.394 45.448 138.48 45.0853 138.565 44.616C138.65 44.104 138.821 43.656 139.077 43.272C139.376 42.8453 139.866 42.632 140.549 42.632C141.829 42.632 142.469 42.9307 142.469 43.528C142.469 43.7413 142.362 44.104 142.149 44.616C141.637 45.768 141.082 47.0907 140.485 48.584C139.888 50.0773 139.354 51.4853 138.885 52.808C138.416 54.1307 138.053 55.1547 137.797 55.88C138.224 55.2827 138.906 54.4293 139.845 53.32C140.826 52.2107 141.914 51.016 143.109 49.736C144.304 48.456 145.541 47.2187 146.821 46.024C148.144 44.8293 149.36 43.8693 150.469 43.144C151.621 42.376 152.602 41.992 153.413 41.992C154.437 41.992 154.949 42.5467 154.949 43.656C154.949 44.04 154.842 44.616 154.629 45.384C154.245 46.4507 153.754 47.496 153.157 48.52C152.56 49.5013 152.026 50.5467 151.557 51.656C150.746 53.6613 150.277 55.2827 150.149 56.52C150.106 56.6907 150.085 56.8613 150.085 57.032C150.085 57.16 150.085 57.3093 150.085 57.48C150.085 59.1867 150.661 60.04 151.813 60.04C152.453 60.04 153.306 59.656 154.373 58.888C155.44 58.12 156.528 57.2027 157.637 56.136C158.789 55.0693 159.813 54.0453 160.709 53.064C161.605 52.04 162.224 51.272 162.565 50.76C162.693 50.632 162.821 50.568 162.949 50.568C163.12 50.568 163.248 50.632 163.333 50.76C163.461 50.888 163.482 51.0587 163.397 51.272C163.013 51.9973 162.352 52.9147 161.413 54.024C160.517 55.0907 159.514 56.1787 158.405 57.288C157.296 58.3547 156.208 59.272 155.141 60.04C154.501 60.4667 153.712 60.8507 152.773 61.192C151.834 61.5333 150.896 61.6827 149.957 61.64C148.762 61.512 147.909 61.1067 147.397 60.424C146.885 59.6987 146.629 58.8453 146.629 57.864C146.629 56.712 146.842 55.496 147.269 54.216C147.738 52.8933 148.25 51.656 148.805 50.504C149.36 49.352 149.808 48.4773 150.149 47.88C150.49 47.1973 150.661 46.664 150.661 46.28C150.661 45.9387 150.512 45.768 150.213 45.768C149.914 45.768 149.466 45.96 148.869 46.344C148.272 46.728 147.461 47.3893 146.437 48.328C145.498 49.1387 144.496 50.2053 143.429 51.528C142.362 52.808 141.317 54.1307 140.293 55.496C139.312 56.8613 138.437 58.0347 137.669 59.016C136.944 59.9973 136.432 60.5733 136.133 60.744C135.92 60.872 135.429 61.0853 134.661 61.384C133.936 61.6827 133.381 61.832 132.997 61.832ZM164.696 61.64C163.928 61.64 163.224 61.4693 162.584 61.128C161.987 60.7867 161.539 60.1467 161.24 59.208C161.197 59.08 161.155 58.952 161.112 58.824C161.112 58.696 161.112 58.5467 161.112 58.376C161.112 57.5227 161.304 56.456 161.688 55.176C162.072 53.896 162.541 52.6587 163.096 51.464C162.84 51.8053 162.541 52.232 162.2 52.744C161.859 53.2133 161.368 53.832 160.728 54.6C160.557 54.7707 160.365 54.856 160.152 54.856C159.853 54.856 159.704 54.6853 159.704 54.344C159.704 54.088 159.789 53.8747 159.96 53.704C161.069 52.296 162.051 51.0373 162.904 49.928C163.8 48.8187 164.461 47.88 164.888 47.112C164.888 47.0267 165.016 46.7707 165.272 46.344C165.528 45.8747 165.869 45.2347 166.296 44.424C165.955 44.4667 165.656 44.5093 165.4 44.552C165.187 44.552 164.995 44.552 164.824 44.552C164.525 44.552 164.269 44.424 164.056 44.168C163.843 43.912 163.821 43.592 163.992 43.208C164.205 42.6107 164.675 42.2693 165.4 42.184C166.125 42.0987 166.765 42.0347 167.32 41.992C167.363 41.9067 167.448 41.864 167.576 41.864C168.088 40.9253 168.579 40.008 169.048 39.112C169.517 38.216 169.901 37.4693 170.2 36.872C170.541 36.2747 170.712 35.9547 170.712 35.912C171.565 34.5467 172.12 33.6507 172.376 33.224C172.632 32.7547 172.973 32.4773 173.4 32.392C173.869 32.3493 174.36 32.3707 174.872 32.456C175.427 32.5413 175.789 32.7333 175.96 33.032C176.088 33.2027 176.152 33.416 176.152 33.672C176.152 34.056 176.067 34.44 175.896 34.824C175.725 35.1653 175.555 35.4427 175.384 35.656C175.213 35.9547 174.979 36.168 174.68 36.296C174.424 36.3813 174.189 36.6373 173.976 37.064C173.549 37.8747 173.08 38.7493 172.568 39.688C172.056 40.6267 171.523 41.5227 170.968 42.376L171.736 42.312C172.76 42.2267 173.72 42.12 174.616 41.992C175.555 41.864 176.621 41.8213 177.816 41.864C178.029 41.864 178.243 41.9067 178.456 41.992C178.712 42.0347 178.84 42.12 178.84 42.248C178.84 42.4187 178.285 42.6533 177.176 42.952C176.749 43.1227 175.811 43.3147 174.36 43.528C172.952 43.6987 171.501 43.8693 170.008 44.04C169.581 44.8507 169.197 45.5333 168.856 46.088C168.515 46.6 168.28 46.984 168.152 47.24C167.213 49.2027 166.36 50.9947 165.592 52.616C164.867 54.1947 164.461 55.496 164.376 56.52C164.333 56.6907 164.312 56.8613 164.312 57.032C164.312 57.16 164.312 57.3093 164.312 57.48C164.312 59.1867 164.867 60.04 165.976 60.04C166.659 60.04 167.533 59.6773 168.6 58.952C169.667 58.184 170.755 57.2667 171.864 56.2C172.973 55.0907 173.976 54.0453 174.872 53.064C175.811 52.04 176.451 51.272 176.792 50.76C176.92 50.632 177.048 50.568 177.176 50.568C177.347 50.568 177.475 50.632 177.56 50.76C177.688 50.888 177.709 51.0587 177.624 51.272C177.24 51.9973 176.579 52.9147 175.64 54.024C174.744 55.0907 173.72 56.1787 172.568 57.288C171.459 58.3547 170.371 59.272 169.304 60.04C168.749 60.4667 168.045 60.8293 167.192 61.128C166.381 61.4693 165.549 61.64 164.696 61.64ZM176.51 61.832C176.168 61.832 176.083 61.6827 176.254 61.384C176.339 61.128 176.552 60.488 176.894 59.464C177.278 58.44 177.726 57.2027 178.238 55.752C178.75 54.3013 179.283 52.8293 179.838 51.336C180.392 49.8 180.904 48.4347 181.374 47.24C181.075 47.624 180.606 48.1787 179.966 48.904C179.368 49.6293 178.728 50.3973 178.046 51.208C177.363 52.0187 176.723 52.7227 176.126 53.32C175.998 53.448 175.912 53.512 175.87 53.512C175.742 53.512 175.678 53.384 175.678 53.128C175.678 52.616 175.806 52.1467 176.062 51.72C177 50.5253 177.896 49.416 178.75 48.392C179.646 47.3253 180.456 46.3227 181.182 45.384C180.755 45.128 180.542 44.808 180.542 44.424C180.542 43.8267 180.84 43.528 181.438 43.528C181.694 43.528 181.886 43.5707 182.014 43.656C182.056 43.6987 182.099 43.72 182.142 43.72C182.184 43.72 182.227 43.7627 182.27 43.848C182.483 43.5493 182.654 43.272 182.782 43.016C182.952 42.76 183.102 42.4827 183.23 42.184C183.4 41.8 183.742 41.0747 184.254 40.008C184.808 38.8987 185.491 37.5973 186.302 36.104C187.112 34.6107 188.03 33.0747 189.054 31.496C190.12 29.8747 191.251 28.3813 192.446 27.016C193.683 25.608 194.942 24.4773 196.222 23.624C197.544 22.7707 198.888 22.344 200.254 22.344C200.424 22.344 200.595 22.3653 200.766 22.408C200.936 22.408 201.107 22.4293 201.278 22.472C202.344 22.6853 203.091 23.0693 203.518 23.624C203.944 24.136 204.158 24.7547 204.158 25.48C204.158 25.992 204.051 26.5467 203.838 27.144C203.667 27.6987 203.411 28.2533 203.07 28.808C202.216 30.3013 201.086 31.816 199.678 33.352C198.27 34.8453 196.691 36.3387 194.942 37.832C193.235 39.2827 191.507 40.712 189.758 42.12C188.051 43.4853 186.451 44.7867 184.958 46.024C183.934 48.2 183.144 50.1413 182.59 51.848C182.035 53.512 181.608 54.856 181.31 55.88C181.779 55.2827 182.483 54.4293 183.422 53.32C184.36 52.2107 185.427 51.016 186.622 49.736C187.816 48.456 189.054 47.24 190.333 46.088C191.613 44.8933 192.83 43.9333 193.982 43.208C195.134 42.44 196.115 42.056 196.926 42.056C197.95 42.056 198.462 42.5893 198.462 43.656C198.462 44.68 198.099 45.8107 197.374 47.048C196.648 48.2853 196.051 49.3307 195.582 50.184C194.984 51.4213 194.494 52.616 194.11 53.768C193.768 54.8773 193.555 55.7947 193.47 56.52C193.427 56.6907 193.406 56.8613 193.406 57.032C193.406 57.16 193.406 57.3093 193.406 57.48C193.406 59.1867 194.003 60.04 195.198 60.04C195.838 60.04 196.691 59.656 197.758 58.888C198.824 58.12 199.912 57.2027 201.022 56.136C202.131 55.0693 203.134 54.0453 204.03 53.064C204.968 52.04 205.608 51.272 205.95 50.76C206.078 50.632 206.227 50.568 206.398 50.568C206.568 50.568 206.696 50.632 206.782 50.76C206.867 50.888 206.867 51.0587 206.782 51.272C206.355 51.9973 205.694 52.9147 204.798 54.024C203.902 55.0907 202.899 56.1787 201.79 57.288C200.68 58.3547 199.592 59.272 198.526 60.04C197.971 60.4667 197.246 60.8293 196.35 61.128C195.496 61.4693 194.643 61.64 193.79 61.64C193.107 61.64 192.446 61.4693 191.806 61.128C191.166 60.7867 190.696 60.1467 190.398 59.208C190.27 58.824 190.206 58.2907 190.206 57.608C190.206 57.3947 190.206 57.1813 190.206 56.968C190.206 56.712 190.227 56.456 190.27 56.2C190.44 54.8347 190.888 53.4053 191.614 51.912C192.382 50.376 193.086 49.0107 193.726 47.816C193.896 47.4747 194.024 47.176 194.11 46.92C194.238 46.664 194.302 46.4507 194.302 46.28C194.302 45.9387 194.152 45.768 193.854 45.768C193.555 45.768 193.086 45.96 192.446 46.344C191.806 46.728 190.952 47.3893 189.885 48.328C188.947 49.1387 187.944 50.2053 186.878 51.528C185.854 52.808 184.83 54.1307 183.806 55.496C182.824 56.8613 181.95 58.0347 181.182 59.016C180.456 59.9973 179.944 60.5733 179.646 60.744C179.432 60.872 178.942 61.0853 178.174 61.384C177.406 61.6827 176.851 61.832 176.51 61.832ZM186.174 43.144C187.88 41.992 189.736 40.5627 191.742 38.856C193.747 37.1067 195.624 35.2507 197.374 33.288C199.166 31.2827 200.531 29.384 201.47 27.592C201.982 26.6107 202.238 25.8 202.238 25.16C202.238 24.4347 201.918 24.072 201.278 24.072C200.979 24.072 200.638 24.1573 200.254 24.328C199.87 24.456 199.422 24.712 198.91 25.096C196.051 27.3147 193.64 29.96 191.678 33.032C189.715 36.0613 187.88 39.432 186.174 43.144ZM222.979 61.64C222.253 61.64 221.571 61.4693 220.931 61.128C220.333 60.7867 219.885 60.1467 219.587 59.208C219.459 58.824 219.395 58.2907 219.395 57.608C219.395 56.6693 219.523 55.624 219.779 54.472C220.035 53.32 220.312 52.3387 220.611 51.528C220.397 51.6133 219.992 51.9973 219.395 52.68C218.84 53.32 218.136 54.1093 217.283 55.048C216.472 55.944 215.555 56.8613 214.531 57.8C213.549 58.696 212.525 59.4427 211.459 60.04C210.392 60.6373 209.347 60.936 208.323 60.936C207.64 60.936 206.915 60.744 206.147 60.36C205.379 59.9333 204.76 59.4 204.291 58.76C203.651 57.9067 203.331 57.032 203.331 56.136C203.331 54.984 203.715 53.7893 204.483 52.552C205.293 51.3147 206.317 50.12 207.555 48.968C208.835 47.7733 210.179 46.7067 211.587 45.768C213.037 44.7867 214.403 43.976 215.683 43.336C217.005 42.6533 218.072 42.2053 218.883 41.992C219.736 41.736 220.696 41.608 221.763 41.608C222.36 41.608 222.979 41.6933 223.619 41.864C224.259 41.992 224.792 42.2267 225.219 42.568C225.56 42.7387 225.837 42.9733 226.051 43.272C226.264 43.5707 226.371 43.8907 226.371 44.232C226.371 44.5733 226.221 44.68 225.923 44.552C225.581 44.04 225.112 43.72 224.515 43.592C223.96 43.4213 223.384 43.336 222.787 43.336C221.08 43.336 219.203 43.8907 217.155 45C215.107 46.1093 213.272 47.4107 211.651 48.904C211.139 49.3307 210.435 50.0773 209.539 51.144C208.685 52.168 207.896 53.2987 207.171 54.536C206.445 55.7733 206.083 56.904 206.083 57.928C206.083 58.4827 206.232 58.9733 206.531 59.4C206.701 59.6987 206.979 59.848 207.363 59.848C207.96 59.848 208.749 59.528 209.731 58.888C210.755 58.248 211.8 57.48 212.867 56.584C213.933 55.6453 214.893 54.7493 215.747 53.896C216.643 53.0427 217.283 52.424 217.667 52.04C217.88 51.8267 218.285 51.4 218.883 50.76C219.523 50.0773 220.205 49.352 220.931 48.584C221.656 47.816 222.296 47.1547 222.851 46.6C223.448 46.0453 223.832 45.768 224.003 45.768C224.216 45.768 224.557 45.832 225.027 45.96C225.539 46.0453 225.965 46.1947 226.307 46.408C226.648 46.6213 226.712 46.8987 226.499 47.24C225.389 48.8613 224.493 50.568 223.811 52.36C223.171 54.1093 222.787 55.496 222.659 56.52C222.616 56.6907 222.595 56.8613 222.595 57.032C222.595 57.16 222.595 57.3093 222.595 57.48C222.595 59.1867 223.192 60.04 224.387 60.04C225.027 60.04 225.88 59.656 226.947 58.888C228.013 58.12 229.101 57.2027 230.211 56.136C231.32 55.0693 232.323 54.0453 233.219 53.064C234.157 52.04 234.797 51.272 235.139 50.76C235.267 50.632 235.395 50.568 235.523 50.568C235.693 50.568 235.843 50.6533 235.971 50.824C236.099 50.952 236.099 51.1227 235.971 51.336C235.501 52.104 234.819 53.0213 233.923 54.088C233.027 55.1547 232.024 56.2213 230.915 57.288C229.805 58.3547 228.717 59.272 227.651 60.04C227.096 60.4667 226.392 60.8293 225.539 61.128C224.685 61.4693 223.832 61.64 222.979 61.64ZM254.651 66.312C253.243 66.312 251.899 66.0773 250.619 65.608C249.339 65.1387 248.293 64.392 247.483 63.368C246.672 62.344 246.267 61.0427 246.267 59.464C246.267 59.08 246.352 58.7387 246.523 58.44C246.736 58.0987 246.928 57.928 247.099 57.928C247.44 57.928 247.611 58.44 247.611 59.464C247.611 60.9147 248.229 62.0453 249.467 62.856C250.448 63.496 251.771 63.816 253.435 63.816C255.099 63.816 256.827 63.5173 258.619 62.92C260.411 62.3227 262.117 61.4693 263.739 60.36C265.659 59.08 267.792 57.2453 270.139 54.856C272.528 52.424 275.003 49.7787 277.562 46.92C275.515 46.7067 273.467 46.472 271.419 46.216C269.413 45.96 267.387 45.832 265.339 45.832C263.973 45.832 262.608 45.9813 261.243 46.28C259.877 46.536 258.64 47.048 257.531 47.816C256.421 48.584 255.589 49.7147 255.035 51.208C254.992 51.3787 254.928 51.5707 254.843 51.784C254.8 51.9973 254.779 52.2107 254.779 52.424C254.779 52.8507 254.885 53.2347 255.099 53.576C255.184 53.832 255.227 53.9813 255.227 54.024C255.227 54.408 255.056 54.6 254.715 54.6C254.416 54.6 254.181 54.4507 254.01 54.152C253.584 53.384 253.371 52.4027 253.371 51.208C253.371 48.9467 253.776 47.2187 254.587 46.024C255.44 44.8293 256.571 44.0187 257.979 43.592C259.387 43.1653 260.901 42.952 262.523 42.952C263.248 42.952 263.995 42.9947 264.763 43.08C265.573 43.1227 266.363 43.1867 267.131 43.272C269.008 43.4427 270.949 43.7413 272.955 44.168C274.96 44.552 276.965 44.9573 278.971 45.384C281.189 42.7813 283.365 40.1573 285.499 37.512C287.675 34.8667 289.701 32.3707 291.579 30.024C293.456 27.6347 295.056 25.5867 296.379 23.88C296.421 23.752 296.507 23.6667 296.635 23.624C296.72 23.5387 296.784 23.496 296.827 23.496C297.296 23.24 297.893 23.0267 298.619 22.856C299.344 22.6427 299.835 22.536 300.091 22.536C300.517 22.536 300.731 22.7707 300.731 23.24C300.731 23.368 300.624 23.6027 300.411 23.944C298.277 27.5707 296.443 31.2827 294.907 35.08C293.413 38.8773 292.091 42.7813 290.939 46.792L290.811 47.24C291.067 47.24 291.323 47.2613 291.579 47.304C291.877 47.304 292.133 47.304 292.347 47.304C294.181 47.432 295.739 47.24 297.019 46.728C297.957 46.3867 298.597 45.896 298.939 45.256C299.067 45.0853 299.173 45 299.259 45C299.472 45 299.621 45.128 299.707 45.384C299.792 45.5973 299.771 45.8107 299.643 46.024C299.173 46.8347 298.341 47.432 297.147 47.816C296.464 48.1147 295.675 48.3067 294.779 48.392C293.925 48.4773 293.029 48.4987 292.091 48.456H291.707L290.939 48.392H290.555C289.915 50.7387 289.467 53.1707 289.211 55.688C289.168 55.9013 289.147 56.1147 289.147 56.328C289.147 56.4987 289.147 56.6907 289.147 56.904C289.147 59.336 289.808 60.552 291.131 60.552C291.984 60.552 292.987 60.168 294.139 59.4C295.333 58.632 296.528 57.6933 297.723 56.584C298.96 55.4747 300.069 54.3867 301.051 53.32C302.032 52.2107 302.757 51.336 303.227 50.696C303.312 50.6107 303.44 50.568 303.611 50.568C304.037 50.568 304.165 50.8027 303.995 51.272C303.909 51.4 303.547 51.912 302.907 52.808C302.267 53.6613 301.392 54.7067 300.283 55.944C299.173 57.1387 297.872 58.3333 296.379 59.528C295.184 60.4667 293.989 61.064 292.795 61.32C291.643 61.6187 290.768 61.768 290.171 61.768C288.976 61.768 288.016 61.2347 287.291 60.168C286.608 59.0587 286.267 57.6507 286.267 55.944C286.267 54.7067 286.395 53.4267 286.651 52.104C286.907 50.7813 287.205 49.4587 287.547 48.136C286.309 48.008 285.051 47.88 283.771 47.752C282.491 47.5813 281.211 47.4107 279.931 47.24C277.371 50.3547 274.811 53.2773 272.251 56.008C269.733 58.696 267.365 60.872 265.147 62.536C263.483 63.7307 261.755 64.648 259.963 65.288C258.213 65.9707 256.443 66.312 254.651 66.312ZM287.803 46.92C288.571 43.9333 289.467 40.9467 290.491 37.96C291.557 34.9307 292.603 32.1787 293.627 29.704L293.947 28.936C292.112 31.496 290.085 34.2267 287.867 37.128C285.691 40.0293 283.472 42.9093 281.211 45.768C282.32 45.9813 283.429 46.1947 284.539 46.408C285.648 46.5787 286.736 46.7493 287.803 46.92ZM306.406 61.64C304.614 61.64 303.355 61.192 302.63 60.296C301.947 59.4 301.606 58.2907 301.606 56.968C301.606 55.7307 301.883 54.1733 302.438 52.296C303.035 50.4187 303.803 48.392 304.742 46.216C305.681 44.04 306.683 41.8853 307.75 39.752C308.859 37.576 309.947 35.592 311.014 33.8C312.123 31.9653 313.083 30.4933 313.894 29.384C314.705 28.3173 315.579 27.2507 316.518 26.184C317.457 25.1173 318.502 24.2213 319.654 23.496C320.806 22.7707 322.107 22.408 323.558 22.408C324.539 22.408 325.371 22.6853 326.054 23.24C326.779 23.752 327.142 24.5413 327.142 25.608C327.142 26.0347 327.057 26.5253 326.886 27.08C326.758 27.6347 326.523 28.2107 326.182 28.808C323.579 33.3307 320.465 37.512 316.838 41.352C313.254 45.192 309.457 48.7547 305.446 52.04C305.275 52.68 305.105 53.256 304.934 53.768C304.806 54.28 304.699 54.6853 304.614 54.984C304.571 55.1973 304.55 55.432 304.55 55.688C304.55 55.9013 304.55 56.1147 304.55 56.328C304.55 57.352 304.721 58.248 305.062 59.016C305.403 59.784 305.979 60.168 306.79 60.168C307.558 60.168 308.497 59.8053 309.606 59.08C310.758 58.312 311.91 57.3947 313.062 56.328C314.214 55.2187 315.259 54.152 316.198 53.128C317.137 52.104 317.798 51.3147 318.182 50.76C318.31 50.632 318.438 50.568 318.566 50.568C318.737 50.568 318.865 50.6533 318.95 50.824C319.078 50.9947 319.078 51.208 318.95 51.464C318.523 52.1893 317.841 53.0853 316.902 54.152C315.963 55.2187 314.918 56.3067 313.766 57.416C312.614 58.4827 311.505 59.4213 310.438 60.232C309.115 61.1707 307.771 61.64 306.406 61.64ZM306.342 49.48C307.963 48.3707 309.649 46.9413 311.398 45.192C313.147 43.4 314.854 41.4587 316.518 39.368C318.225 37.2773 319.761 35.208 321.126 33.16C322.534 31.112 323.665 29.256 324.518 27.592C324.774 27.1227 324.945 26.7173 325.03 26.376C325.158 25.992 325.222 25.6507 325.222 25.352C325.222 24.5413 324.881 24.136 324.198 24.136C323.601 24.136 322.854 24.456 321.958 25.096C319.654 26.888 317.521 29.192 315.558 32.008C313.595 34.7813 311.846 37.704 310.31 40.776C308.774 43.848 307.451 46.7493 306.342 49.48ZM323.134 61.96C321.214 61.96 319.55 61.512 318.142 60.616C316.734 59.72 316.03 58.3547 316.03 56.52C316.03 55.5387 316.329 54.344 316.926 52.936C317.353 51.9547 318.142 50.824 319.294 49.544C320.446 48.264 321.79 47.0267 323.326 45.832C324.862 44.5947 326.419 43.592 327.998 42.824C329.577 42.0133 331.006 41.608 332.286 41.608C332.755 41.608 333.182 41.672 333.566 41.8C334.291 42.056 334.782 42.4613 335.038 43.016C335.337 43.5707 335.486 44.1467 335.486 44.744C335.486 45.2987 335.401 45.832 335.23 46.344C335.059 46.856 334.846 47.304 334.59 47.688C333.822 48.84 332.713 49.864 331.262 50.76C329.854 51.656 328.403 52.36 326.91 52.872C325.459 53.384 324.265 53.6827 323.326 53.768H323.198C322.643 53.768 322.366 53.5973 322.366 53.256C322.366 53.0427 322.537 52.936 322.878 52.936C323.902 52.8507 325.182 52.3813 326.718 51.528C328.297 50.632 329.683 49.7147 330.878 48.776C331.39 48.3493 331.987 47.752 332.67 46.984C333.395 46.216 333.758 45.4693 333.758 44.744C333.758 43.976 333.395 43.592 332.67 43.592C332.286 43.592 331.881 43.6773 331.454 43.848C331.07 44.0187 330.75 44.1467 330.494 44.232C329.257 44.8293 327.891 45.768 326.398 47.048C324.905 48.2853 323.539 49.6933 322.302 51.272C321.107 52.808 320.275 54.3653 319.806 55.944C319.678 56.2853 319.593 56.6267 319.55 56.968C319.507 57.2667 319.486 57.5653 319.486 57.864C319.486 58.888 319.806 59.6133 320.446 60.04C321.129 60.4667 321.939 60.68 322.878 60.68C324.286 60.68 325.737 60.3813 327.23 59.784C328.723 59.144 330.174 58.3333 331.582 57.352C332.99 56.3707 334.27 55.3253 335.422 54.216C336.617 53.064 337.619 51.9547 338.43 50.888C338.558 50.7173 338.707 50.632 338.878 50.632C339.049 50.5893 339.155 50.6107 339.198 50.696C339.369 50.7387 339.454 50.8667 339.454 51.08C339.454 51.2507 339.411 51.4213 339.326 51.592C338.131 53.256 336.681 54.8773 334.974 56.456C333.31 58.0347 331.454 59.3573 329.406 60.424C327.401 61.448 325.31 61.96 323.134 61.96ZM333.843 73.288C333.459 73.288 333.267 73.0533 333.267 72.584C333.267 71.0053 333.737 69.32 334.675 67.528C335.572 65.736 336.681 63.944 338.004 62.152C339.369 60.4027 340.713 58.8027 342.036 57.352C343.401 55.8587 344.532 54.6427 345.428 53.704C346.366 52.7227 346.836 52.1467 346.836 51.976C346.836 51.5493 346.708 50.952 346.452 50.184C346.196 49.3733 345.854 48.648 345.428 48.008C345.001 47.3253 344.532 46.984 344.02 46.984C343.38 46.984 342.654 47.496 341.844 48.52C341.076 49.5013 340.137 50.632 339.028 51.912C338.772 52.2107 338.537 52.36 338.324 52.36C338.068 52.36 337.94 52.2107 337.94 51.912C337.94 51.656 338.025 51.4427 338.196 51.272C338.58 50.8027 339.092 50.1413 339.732 49.288C340.372 48.392 341.054 47.496 341.78 46.6C342.505 45.6613 343.209 44.8933 343.892 44.296C344.617 43.656 345.236 43.336 345.748 43.336C346.814 43.336 347.582 43.656 348.052 44.296C348.521 44.936 348.884 45.7467 349.14 46.728C349.396 47.6667 349.694 48.6693 350.036 49.736C351.614 48.2427 353.15 46.8773 354.644 45.64C356.137 44.36 357.801 43.144 359.636 41.992C359.934 41.8213 360.254 41.736 360.596 41.736C361.108 41.736 361.556 41.8853 361.94 42.184C362.324 42.4827 362.516 42.8667 362.516 43.336C362.516 43.7627 362.302 43.9973 361.876 44.04C361.492 44.04 361.193 44.0827 360.98 44.168C359.401 44.7653 358.164 45.3627 357.268 45.96C356.372 46.5573 355.582 47.1333 354.9 47.688L350.356 51.336C350.356 51.8053 350.59 52.6587 351.06 53.896C351.529 55.1333 352.062 56.328 352.66 57.48C353.47 58.9733 354.388 59.72 355.412 59.72C356.094 59.72 356.777 59.4853 357.46 59.016C358.142 58.5467 358.825 57.9707 359.508 57.288C360.532 56.136 361.534 54.92 362.516 53.64C363.54 52.3173 364.265 51.3573 364.692 50.76C364.82 50.632 364.969 50.568 365.14 50.568C365.353 50.568 365.502 50.6533 365.588 50.824C365.716 50.9947 365.673 51.208 365.46 51.464C365.204 51.8053 364.756 52.4027 364.116 53.256C363.518 54.1093 362.814 55.0267 362.004 56.008C361.236 56.9893 360.446 57.8853 359.636 58.696C358.484 59.7627 357.46 60.488 356.564 60.872C355.71 61.256 354.921 61.448 354.196 61.448C354.025 61.448 353.833 61.4267 353.62 61.384C353.406 61.384 353.193 61.3627 352.98 61.32C352.041 61.1067 351.209 60.552 350.484 59.656C349.801 58.76 349.204 57.7573 348.692 56.648C348.222 55.5387 347.838 54.6 347.54 53.832C346.772 54.6427 345.833 55.6453 344.724 56.84C343.657 57.992 342.526 59.272 341.332 60.68C340.137 62.0453 339.006 63.4533 337.94 64.904C336.916 66.3547 336.062 67.7413 335.38 69.064C334.739 70.3867 334.398 71.56 334.355 72.584C334.313 73.0533 334.142 73.288 333.843 73.288ZM381.791 61.64C381.066 61.64 380.383 61.4693 379.743 61.128C379.146 60.7867 378.698 60.1467 378.399 59.208C378.271 58.824 378.207 58.2907 378.207 57.608C378.207 56.6693 378.335 55.624 378.591 54.472C378.847 53.32 379.124 52.3387 379.423 51.528C379.21 51.6133 378.804 51.9973 378.207 52.68C377.652 53.32 376.948 54.1093 376.095 55.048C375.284 55.944 374.367 56.8613 373.343 57.8C372.362 58.696 371.338 59.4427 370.271 60.04C369.204 60.6373 368.159 60.936 367.135 60.936C366.452 60.936 365.727 60.744 364.959 60.36C364.191 59.9333 363.572 59.4 363.103 58.76C362.463 57.9067 362.143 57.032 362.143 56.136C362.143 54.984 362.527 53.7893 363.295 52.552C364.106 51.3147 365.13 50.12 366.367 48.968C367.647 47.7733 368.991 46.7067 370.399 45.768C371.85 44.7867 373.215 43.976 374.495 43.336C375.818 42.6533 376.884 42.2053 377.695 41.992C378.548 41.736 379.508 41.608 380.575 41.608C381.172 41.608 381.791 41.6933 382.431 41.864C383.071 41.992 383.604 42.2267 384.031 42.568C384.372 42.7387 384.65 42.9733 384.863 43.272C385.076 43.5707 385.183 43.8907 385.183 44.232C385.183 44.5733 385.034 44.68 384.735 44.552C384.394 44.04 383.924 43.72 383.327 43.592C382.772 43.4213 382.196 43.336 381.599 43.336C379.892 43.336 378.015 43.8907 375.967 45C373.919 46.1093 372.084 47.4107 370.463 48.904C369.951 49.3307 369.247 50.0773 368.351 51.144C367.498 52.168 366.708 53.2987 365.983 54.536C365.258 55.7733 364.895 56.904 364.895 57.928C364.895 58.4827 365.044 58.9733 365.343 59.4C365.514 59.6987 365.791 59.848 366.175 59.848C366.772 59.848 367.562 59.528 368.543 58.888C369.567 58.248 370.612 57.48 371.679 56.584C372.746 55.6453 373.706 54.7493 374.559 53.896C375.455 53.0427 376.095 52.424 376.479 52.04C376.692 51.8267 377.098 51.4 377.695 50.76C378.335 50.0773 379.018 49.352 379.743 48.584C380.468 47.816 381.108 47.1547 381.663 46.6C382.26 46.0453 382.644 45.768 382.815 45.768C383.028 45.768 383.37 45.832 383.839 45.96C384.351 46.0453 384.778 46.1947 385.119 46.408C385.46 46.6213 385.524 46.8987 385.311 47.24C384.202 48.8613 383.306 50.568 382.623 52.36C381.983 54.1093 381.599 55.496 381.471 56.52C381.428 56.6907 381.407 56.8613 381.407 57.032C381.407 57.16 381.407 57.3093 381.407 57.48C381.407 59.1867 382.004 60.04 383.199 60.04C383.839 60.04 384.692 59.656 385.759 58.888C386.826 58.12 387.914 57.2027 389.023 56.136C390.132 55.0693 391.135 54.0453 392.031 53.064C392.97 52.04 393.61 51.272 393.951 50.76C394.079 50.632 394.207 50.568 394.335 50.568C394.506 50.568 394.655 50.6533 394.783 50.824C394.911 50.952 394.911 51.1227 394.783 51.336C394.314 52.104 393.631 53.0213 392.735 54.088C391.839 55.1547 390.836 56.2213 389.727 57.288C388.618 58.3547 387.53 59.272 386.463 60.04C385.908 60.4667 385.204 60.8293 384.351 61.128C383.498 61.4693 382.644 61.64 381.791 61.64ZM390.247 61.832C389.948 61.832 389.863 61.6827 389.991 61.384C390.119 61.128 390.354 60.552 390.695 59.656C391.036 58.7173 391.42 57.608 391.847 56.328C392.316 55.048 392.786 53.7253 393.255 52.36C393.724 50.9947 394.151 49.7147 394.535 48.52C394.962 47.3253 395.303 46.3867 395.559 45.704C395.644 45.448 395.73 45.0853 395.815 44.616C395.9 44.104 396.071 43.656 396.327 43.272C396.626 42.8453 397.116 42.632 397.799 42.632C399.079 42.632 399.719 42.9307 399.719 43.528C399.719 43.7413 399.612 44.104 399.399 44.616C398.887 45.768 398.332 47.0907 397.735 48.584C397.138 50.0773 396.604 51.4853 396.135 52.808C395.666 54.1307 395.303 55.1547 395.047 55.88C395.474 55.2827 396.156 54.4293 397.095 53.32C398.076 52.2107 399.164 51.016 400.359 49.736C401.554 48.456 402.791 47.2187 404.071 46.024C405.394 44.8293 406.61 43.8693 407.719 43.144C408.871 42.376 409.852 41.992 410.663 41.992C411.687 41.992 412.199 42.5467 412.199 43.656C412.199 44.04 412.092 44.616 411.879 45.384C411.495 46.4507 411.004 47.496 410.407 48.52C409.81 49.5013 409.276 50.5467 408.807 51.656C407.996 53.6613 407.527 55.2827 407.399 56.52C407.356 56.6907 407.335 56.8613 407.335 57.032C407.335 57.16 407.335 57.3093 407.335 57.48C407.335 59.1867 407.911 60.04 409.063 60.04C409.703 60.04 410.556 59.656 411.623 58.888C412.69 58.12 413.778 57.2027 414.887 56.136C416.039 55.0693 417.063 54.0453 417.959 53.064C418.855 52.04 419.474 51.272 419.815 50.76C419.943 50.632 420.071 50.568 420.199 50.568C420.37 50.568 420.498 50.632 420.583 50.76C420.711 50.888 420.732 51.0587 420.647 51.272C420.263 51.9973 419.602 52.9147 418.663 54.024C417.767 55.0907 416.764 56.1787 415.655 57.288C414.546 58.3547 413.458 59.272 412.391 60.04C411.751 60.4667 410.962 60.8507 410.023 61.192C409.084 61.5333 408.146 61.6827 407.207 61.64C406.012 61.512 405.159 61.1067 404.647 60.424C404.135 59.6987 403.879 58.8453 403.879 57.864C403.879 56.712 404.092 55.496 404.519 54.216C404.988 52.8933 405.5 51.656 406.055 50.504C406.61 49.352 407.058 48.4773 407.399 47.88C407.74 47.1973 407.911 46.664 407.911 46.28C407.911 45.9387 407.762 45.768 407.463 45.768C407.164 45.768 406.716 45.96 406.119 46.344C405.522 46.728 404.711 47.3893 403.687 48.328C402.748 49.1387 401.746 50.2053 400.679 51.528C399.612 52.808 398.567 54.1307 397.543 55.496C396.562 56.8613 395.687 58.0347 394.919 59.016C394.194 59.9973 393.682 60.5733 393.383 60.744C393.17 60.872 392.679 61.0853 391.911 61.384C391.186 61.6827 390.631 61.832 390.247 61.832ZM435.962 67.976C434.853 67.8053 434.063 67.272 433.594 66.376C433.125 65.48 432.89 64.3707 432.89 63.048C432.89 61.4693 433.103 59.7627 433.53 57.928C433.999 56.0933 434.533 54.3653 435.13 52.744C435.727 51.1227 436.197 49.8853 436.538 49.032C435.557 50.184 434.426 51.4427 433.146 52.808C431.909 54.1733 430.607 55.4747 429.242 56.712C427.877 57.9493 426.554 58.9733 425.274 59.784C424.037 60.552 422.949 60.936 422.01 60.936C421.327 60.936 420.602 60.744 419.834 60.36C419.066 59.9333 418.447 59.4 417.978 58.76C417.338 57.9067 417.018 57.032 417.018 56.136C417.018 54.984 417.402 53.7893 418.17 52.552C418.981 51.3147 420.005 50.12 421.242 48.968C422.522 47.7733 423.866 46.7067 425.274 45.768C426.725 44.7867 428.09 43.976 429.37 43.336C430.693 42.6533 431.759 42.2053 432.57 41.992C432.997 41.9067 433.445 41.8213 433.914 41.736C434.383 41.6507 434.874 41.608 435.386 41.608C436.026 41.608 436.666 41.6933 437.306 41.864C437.946 41.992 438.479 42.2267 438.906 42.568L439.162 42.76C440.186 40.4133 441.317 38.0453 442.554 35.656C443.791 33.224 445.114 31.0053 446.522 29C447.93 26.9947 449.423 25.3947 451.002 24.2C452.581 22.9627 454.223 22.344 455.93 22.344C456.143 22.344 456.357 22.3653 456.57 22.408C456.783 22.408 456.975 22.4293 457.146 22.472C458.213 22.6853 458.959 23.0693 459.386 23.624C459.855 24.136 460.09 24.7547 460.09 25.48C460.09 25.992 459.983 26.5467 459.77 27.144C459.599 27.6987 459.343 28.2533 459.002 28.808C458.063 30.472 456.826 32.1147 455.29 33.736C453.797 35.3573 452.154 36.936 450.362 38.472C448.57 39.9653 446.778 41.416 444.986 42.824C443.237 44.232 441.637 45.5547 440.186 46.792C439.546 48.2853 438.906 50.0347 438.266 52.04C437.626 54.0453 437.093 55.752 436.666 57.16C436.41 58.184 436.197 59.144 436.026 60.04C435.898 60.936 435.834 61.768 435.834 62.536C435.834 63.944 436.09 65.096 436.602 65.992C437.029 66.6747 437.562 67.016 438.202 67.016C438.671 67.016 439.098 66.8453 439.482 66.504C439.653 66.4187 439.802 66.312 439.93 66.184C440.101 66.056 440.293 65.928 440.506 65.8C440.762 65.672 440.975 65.608 441.146 65.608C441.445 65.608 441.466 65.8427 441.21 66.312C441.082 66.44 440.933 66.5893 440.762 66.76C440.591 66.9733 440.399 67.1867 440.186 67.4C439.887 67.6133 439.439 67.784 438.842 67.912C438.245 68.04 437.647 68.104 437.05 68.104C436.879 68.104 436.687 68.0827 436.474 68.04C436.303 68.04 436.133 68.0187 435.962 67.976ZM442.106 43.144C443.813 41.992 445.669 40.5627 447.674 38.856C449.679 37.1067 451.557 35.2507 453.306 33.288C455.055 31.2827 456.399 29.384 457.338 27.592C457.893 26.568 458.17 25.7573 458.17 25.16C458.17 24.4347 457.85 24.072 457.21 24.072C456.613 24.072 455.823 24.4133 454.842 25.096C451.983 27.3147 449.573 29.96 447.61 33.032C445.647 36.0613 443.813 39.432 442.106 43.144ZM420.218 59.4C420.431 59.656 420.709 59.784 421.05 59.784C421.69 59.784 422.437 59.5067 423.29 58.952C424.186 58.3973 424.783 57.9707 425.082 57.672C427.258 55.9227 429.434 54.0453 431.61 52.04C433.829 49.992 435.898 47.944 437.818 45.896C437.989 45.512 438.138 45.1493 438.266 44.808C438.394 44.424 438.543 44.0613 438.714 43.72C438.074 43.464 437.327 43.336 436.474 43.336C434.767 43.336 432.89 43.8907 430.842 45C428.794 46.1093 426.959 47.4107 425.338 48.904C424.826 49.3307 424.122 50.0773 423.226 51.144C422.373 52.168 421.583 53.2987 420.858 54.536C420.133 55.7733 419.77 56.904 419.77 57.928C419.77 58.4827 419.919 58.9733 420.218 59.4ZM448.572 61.96C446.652 61.96 444.988 61.512 443.58 60.616C442.172 59.72 441.468 58.3547 441.468 56.52C441.468 55.5387 441.766 54.344 442.364 52.936C442.79 51.9547 443.58 50.824 444.732 49.544C445.884 48.264 447.228 47.0267 448.764 45.832C450.3 44.5947 451.857 43.592 453.436 42.824C455.014 42.0133 456.444 41.608 457.724 41.608C458.193 41.608 458.62 41.672 459.003 41.8C459.729 42.056 460.22 42.4613 460.476 43.016C460.774 43.5707 460.924 44.1467 460.924 44.744C460.924 45.2987 460.838 45.832 460.668 46.344C460.497 46.856 460.284 47.304 460.028 47.688C459.26 48.84 458.15 49.864 456.7 50.76C455.292 51.656 453.841 52.36 452.348 52.872C450.897 53.384 449.702 53.6827 448.764 53.768H448.635C448.081 53.768 447.804 53.5973 447.804 53.256C447.804 53.0427 447.974 52.936 448.316 52.936C449.34 52.8507 450.62 52.3813 452.156 51.528C453.734 50.632 455.121 49.7147 456.316 48.776C456.828 48.3493 457.425 47.752 458.108 46.984C458.833 46.216 459.196 45.4693 459.196 44.744C459.196 43.976 458.833 43.592 458.108 43.592C457.724 43.592 457.318 43.6773 456.892 43.848C456.508 44.0187 456.188 44.1467 455.932 44.232C454.694 44.8293 453.329 45.768 451.836 47.048C450.342 48.2853 448.977 49.6933 447.74 51.272C446.545 52.808 445.713 54.3653 445.244 55.944C445.116 56.2853 445.03 56.6267 444.988 56.968C444.945 57.2667 444.924 57.5653 444.924 57.864C444.924 58.888 445.244 59.6133 445.884 60.04C446.566 60.4667 447.377 60.68 448.316 60.68C449.724 60.68 451.174 60.3813 452.668 59.784C454.161 59.144 455.612 58.3333 457.02 57.352C458.428 56.3707 459.708 55.3253 460.86 54.216C462.054 53.064 463.057 51.9547 463.868 50.888C463.996 50.7173 464.145 50.632 464.316 50.632C464.486 50.5893 464.593 50.6107 464.636 50.696C464.806 50.7387 464.892 50.8667 464.892 51.08C464.892 51.2507 464.849 51.4213 464.764 51.592C463.569 53.256 462.118 54.8773 460.412 56.456C458.748 58.0347 456.892 59.3573 454.844 60.424C452.838 61.448 450.748 61.96 448.572 61.96ZM471.633 61.768C470.908 61.768 470.268 61.5973 469.713 61.256C469.158 60.9573 468.774 60.36 468.561 59.464C468.433 58.9947 468.369 58.5253 468.369 58.056C468.369 56.776 468.689 55.5387 469.329 54.344C470.012 53.1067 470.801 51.976 471.697 50.952C472.593 49.8853 473.361 48.9893 474.001 48.264C474.342 47.9227 474.726 47.4747 475.153 46.92C475.622 46.3653 475.857 45.8107 475.857 45.256C475.857 44.9147 475.686 44.5947 475.345 44.296C475.004 43.9547 474.385 43.72 473.489 43.592C472.977 43.5067 472.486 43.4427 472.017 43.4C471.59 43.3147 471.142 43.272 470.673 43.272C469.478 44.8933 468.305 46.536 467.153 48.2C466.044 49.8213 464.849 51.4213 463.569 53C463.27 53.2987 463.014 53.448 462.801 53.448C462.545 53.448 462.417 53.32 462.417 53.064C462.417 52.808 462.545 52.552 462.801 52.296C465.105 49.48 467.089 46.472 468.753 43.272C468.54 43.272 468.22 43.272 467.793 43.272C467.366 43.2293 467.025 43.1867 466.769 43.144C466.47 43.0587 466.236 42.9307 466.065 42.76C465.894 42.5893 465.809 42.4187 465.809 42.248C465.809 41.992 465.916 41.8427 466.129 41.8C466.684 41.6293 467.281 41.3733 467.921 41.032C468.561 40.6907 469.158 40.2427 469.713 39.688C470.31 39.0907 470.865 38.472 471.377 37.832C471.889 37.1493 472.294 36.6373 472.593 36.296C472.892 36.0827 473.212 35.976 473.553 35.976C473.766 35.976 473.958 36.04 474.129 36.168C474.342 36.296 474.449 36.488 474.449 36.744C474.449 37.0427 474.321 37.4267 474.065 37.896C473.681 38.4933 473.254 39.1547 472.785 39.88C472.358 40.6053 471.953 41.2667 471.569 41.864C472.337 41.9067 473.105 41.9493 473.873 41.992C474.641 42.0347 475.43 42.056 476.241 42.056C476.668 42.056 477.073 42.056 477.457 42.056C477.884 42.0133 478.31 41.992 478.737 41.992C480.017 41.992 480.657 42.312 480.657 42.952C480.657 43.3787 480.422 43.912 479.953 44.552C479.526 45.1493 478.993 45.8107 478.353 46.536C476.902 48.2 475.665 49.9493 474.641 51.784C473.617 53.6187 472.934 55.0267 472.593 56.008C472.252 57.032 472.081 57.8 472.081 58.312C472.081 59.336 472.486 59.848 473.297 59.848C474.022 59.848 474.897 59.4853 475.921 58.76C476.988 58.0347 478.076 57.16 479.185 56.136C480.294 55.0693 481.297 54.0453 482.193 53.064C483.089 52.04 483.729 51.272 484.113 50.76C484.198 50.632 484.326 50.568 484.497 50.568C484.668 50.568 484.817 50.6533 484.945 50.824C485.073 50.952 485.073 51.1227 484.945 51.336C484.476 52.0613 483.793 52.9787 482.897 54.088C482.001 55.1547 480.998 56.2213 479.889 57.288C478.78 58.3547 477.692 59.272 476.625 60.04C476.07 60.4667 475.302 60.8507 474.321 61.192C473.382 61.576 472.486 61.768 471.633 61.768Z" fill="#5B5E80"/>
</svg>
